<?xml version="1.0" encoding="UTF-8"?>
<svg width="24px" height="24px" viewBox="0 0 24 24" version="1.1" xmlns="http://www.w3.org/2000/svg" xmlns:xlink="http://www.w3.org/1999/xlink">
    <!-- Generator: Sketch 48.2 (47327) - http://www.bohemiancoding.com/sketch -->
    <title>Icon / code-gradient</title>
    <desc>Created with Sketch.</desc>
    <defs>
        <path d="M14.94608,3.253125 C15.05904,3.288 15.14368,3.35566071 15.20016,3.45610714 C15.25664,3.55655357 15.26752,3.66358929 15.2328,3.77705357 L10.3704,20.6814643 C10.33568,20.7947679 10.26832,20.8797857 10.16832,20.9366786 C10.06832,20.9935714 9.96624,21.0045 9.86192,20.9693036 L9.05376,20.7467143 C8.94064,20.7118393 8.856,20.6441786 8.79952,20.5437321 C8.74304,20.4434464 8.73216,20.3364107 8.76688,20.2229464 L13.62928,3.31869643 C13.664,3.20523214 13.73152,3.12005357 13.83152,3.06332143 C13.9312,3.00658929 14.0336,2.99566071 14.13776,3.03053571 L14.94608,3.253125 Z M7.6592,6.55307143 C7.6592,6.66653571 7.61584,6.76698214 7.5288,6.85425 L2.40576,12 L7.5288,17.1460714 C7.61568,17.2333393 7.6592,17.3337857 7.6592,17.4470893 C7.6592,17.5607143 7.61568,17.6611607 7.5288,17.7484286 L6.87696,18.4028571 C6.79008,18.490125 6.69024,18.5336786 6.57712,18.5336786 C6.464,18.5336786 6.36416,18.4902857 6.27728,18.4028571 L0.20272,12.3011786 C0.11584,12.2139107 0.07232,12.1134643 0.07232,12 C0.07232,11.8865357 0.11568,11.7860893 0.20272,11.6988214 L6.27728,5.59714286 C6.36416,5.509875 6.46416,5.46616071 6.57712,5.46616071 C6.69008,5.46616071 6.79008,5.509875 6.87696,5.59714286 L7.5288,6.25189286 C7.61568,6.33916071 7.6592,6.43960714 7.6592,6.55307143 Z M23.79712,11.6986607 C23.884,11.7859286 23.92736,11.886375 23.92736,11.9998393 C23.92736,12.1133036 23.884,12.2139107 23.79712,12.3011786 L17.7224,18.4028571 C17.63552,18.490125 17.53552,18.5336786 17.42272,18.5336786 C17.3096,18.5336786 17.20992,18.4902857 17.12272,18.4028571 L16.4712,17.7484286 C16.38432,17.6611607 16.34096,17.5607143 16.34096,17.4470893 C16.34096,17.3337857 16.38432,17.2333393 16.4712,17.1460714 L21.59424,12 L16.4712,6.85408929 C16.38432,6.76682143 16.34096,6.66653571 16.34096,6.55291071 C16.34096,6.43928571 16.38432,6.339 16.4712,6.25173214 L17.12272,5.59698214 C17.20992,5.50971429 17.3096,5.466 17.42272,5.466 C17.53552,5.466 17.63552,5.50971429 17.7224,5.59698214 L23.79712,11.6986607 Z" id="path-1"></path>
        <linearGradient x1="0%" y1="0%" x2="100%" y2="100%" id="linearGradient-3">
            <stop stop-color="#FF6F6F" offset="0%"></stop>
            <stop stop-color="#FF6F93" offset="100%"></stop>
        </linearGradient>
    </defs>
    <g id="Symbols" stroke="none" stroke-width="1" fill="none" fill-rule="evenodd">
        <g id="Icon-/-code-gradient">
            <g id="Icon-/-code">
                <mask id="mask-2" fill="white">
                    <use xlink:href="#path-1"></use>
                </mask>
                <use id="Combined-Shape" fill="#000000" fill-rule="evenodd" xlink:href="#path-1"></use>
                <g id="Colours-/-Primary" mask="url(#mask-2)" fill="url(#linearGradient-3)" fill-rule="evenodd">
                    <rect id="Rectangle-2" x="0" y="0" width="24" height="24"></rect>
                </g>
            </g>
        </g>
    </g>
</svg>