<?xml version="1.0" encoding="UTF-8"?>
<svg width="218px" height="80px" viewBox="0 0 218 80" version="1.1" xmlns="http://www.w3.org/2000/svg" xmlns:xlink="http://www.w3.org/1999/xlink">
    <!-- Generator: Sketch 48.2 (47327) - http://www.bohemiancoding.com/sketch -->
    <title>logo_title-white</title>
    <desc>Created with Sketch.</desc>
    <defs>
        <linearGradient x1="50%" y1="0%" x2="50%" y2="100%" id="linearGradient-1">
            <stop stop-color="#FFFFFF" stop-opacity="0.5" offset="0%"></stop>
            <stop stop-color="#000000" stop-opacity="0.5" offset="100%"></stop>
        </linearGradient>
        <linearGradient x1="0%" y1="0%" x2="100%" y2="100%" id="linearGradient-2">
            <stop stop-color="#FF6F6F" offset="0%"></stop>
            <stop stop-color="#FF6FAC" offset="100%"></stop>
        </linearGradient>
        <linearGradient x1="0%" y1="0%" x2="88.0186494%" y2="50%" id="linearGradient-3">
            <stop stop-color="#FF6F6F" offset="0%"></stop>
            <stop stop-color="#FF6F93" offset="100%"></stop>
        </linearGradient>
        <linearGradient x1="0%" y1="0%" x2="100%" y2="100%" id="linearGradient-4">
            <stop stop-color="#FF6F6F" offset="0%"></stop>
            <stop stop-color="#FF6F93" offset="100%"></stop>
        </linearGradient>
        <linearGradient x1="0%" y1="23.1587554%" x2="88.9493856%" y2="57.0467934%" id="linearGradient-5">
            <stop stop-color="#FF6F6F" offset="0%"></stop>
            <stop stop-color="#FF6F93" offset="100%"></stop>
        </linearGradient>
    </defs>
    <g id="Symbols" stroke="none" stroke-width="1" fill="none" fill-rule="evenodd">
        <g id="logo_title-white">
            <path d="M83.9756634,50.703125 C82.7202375,50.703125 81.5733587,50.471682 80.5349924,50.0087891 C79.4966262,49.5458961 78.6254676,48.8339892 77.9214904,47.8730469 L77.7102984,47.8730469 C77.8510938,48.9980525 77.9214904,50.0644481 77.9214904,51.0722656 L77.9214904,59 L75,59 L75,31.0859375 L77.3759109,31.0859375 L77.7806957,33.7226562 L77.9214904,33.7226562 C78.6723994,32.6679635 79.5464912,31.9062523 80.5437921,31.4375 C81.541093,30.9687477 82.6850387,30.734375 83.9756634,30.734375 C86.533447,30.734375 88.5074865,31.6074131 89.8978413,33.3535156 C91.2881961,35.0996181 91.9833631,37.5488124 91.9833631,40.7011719 C91.9833631,43.8652502 91.2764634,46.3232334 89.8626427,48.0751953 C88.4488219,49.8271572 86.4865151,50.703125 83.9756634,50.703125 Z M83.5532793,33.2128906 C81.5821433,33.2128906 80.156611,33.7578071 79.2766396,34.8476562 C78.3966682,35.9375054 77.9449563,37.6718631 77.9214904,40.0507812 L77.9214904,40.7011719 C77.9214904,43.4082167 78.3732023,45.3447207 79.2766396,46.5107422 C80.1800769,47.6767636 81.6290748,48.2597656 83.6236766,48.2597656 C85.2897558,48.2597656 86.5950271,47.5859442 87.5395298,46.2382812 C88.4840324,44.8906183 88.9562766,43.033215 88.9562766,40.6660156 C88.9562766,38.2636599 88.4840324,36.4209049 87.5395298,35.1376953 C86.5950271,33.8544858 85.2662902,33.2128906 83.5532793,33.2128906 Z M108.949127,50.3515625 L108.368349,47.609375 L108.227554,47.609375 C107.265452,48.8164123 106.306297,49.6337869 105.350062,50.0615234 C104.393826,50.48926 103.200016,50.703125 101.768596,50.703125 C99.856125,50.703125 98.3572629,50.2109424 97.2719648,49.2265625 C96.1866667,48.2421826 95.6440258,46.841806 95.6440258,45.0253906 C95.6440258,41.1347462 98.7590779,39.0957041 104.989275,38.9082031 L108.262753,38.8027344 L108.262753,37.6074219 C108.262753,36.0956956 107.937168,34.9794958 107.285989,34.2587891 C106.63481,33.5380823 105.593527,33.1777344 104.162106,33.1777344 C102.554692,33.1777344 100.736112,33.669917 98.706311,34.6542969 L97.8087447,32.421875 C98.7591138,31.9062474 99.8003977,31.5019546 100.932628,31.2089844 C102.064857,30.9160142 103.200003,30.7695312 104.3381,30.7695312 C106.637758,30.7695312 108.341944,31.2792918 109.450708,32.2988281 C110.559472,33.3183645 111.113846,34.9531137 111.113846,37.203125 L111.113846,50.3515625 L108.949127,50.3515625 Z M102.349374,48.2949219 C104.167982,48.2949219 105.596447,47.79688 106.634814,46.8007812 C107.67318,45.8046825 108.192355,44.4101652 108.192355,42.6171875 L108.192355,40.8769531 L105.270865,41 C102.94774,41.0820317 101.272887,41.4423796 100.246253,42.0810547 C99.21962,42.7197298 98.706311,43.7128839 98.706311,45.0605469 C98.706311,46.1152396 99.0260292,46.917966 99.665475,47.46875 C100.304921,48.019534 101.199545,48.2949219 102.349374,48.2949219 Z M124.841331,50.703125 C122.048888,50.703125 119.887124,49.8447351 118.355974,48.1279297 C116.824824,46.4111242 116.05926,43.9824376 116.05926,40.8417969 C116.05926,37.6191245 116.836557,35.128915 118.391173,33.3710938 C119.945789,31.6132725 122.16035,30.734375 125.034924,30.734375 C125.961827,30.734375 126.888716,30.8339834 127.815619,31.0332031 C128.742523,31.2324229 129.469955,31.4667955 129.997938,31.7363281 L129.100371,34.2148438 C128.455059,33.95703 127.751092,33.7431649 126.98845,33.5732422 C126.225809,33.4033195 125.551174,33.3183594 124.964526,33.3183594 C121.04572,33.3183594 119.086347,35.8144282 119.086347,40.8066406 C119.086347,43.17384 119.564457,44.990228 120.520693,46.2558594 C121.476929,47.5214907 122.893661,48.1542969 124.770934,48.1542969 C126.378348,48.1542969 128.026803,47.8085972 129.716348,47.1171875 L129.716348,49.7011719 C128.425723,50.369144 126.800734,50.703125 124.841331,50.703125 Z M137.178468,40.4902344 C137.682985,39.7753871 138.451482,38.8378964 139.483982,37.6777344 L145.714148,31.0859375 L149.181218,31.0859375 L141.367111,39.2949219 L149.726798,50.3515625 L146.18933,50.3515625 L139.378386,41.2460938 L137.178468,43.1445312 L137.178468,50.3515625 L134.292177,50.3515625 L134.292177,23 L137.178468,23 L137.178468,37.5019531 C137.178468,38.1464876 137.131537,39.1425714 137.037674,40.4902344 L137.178468,40.4902344 Z M165.073422,50.3515625 L164.492644,47.609375 L164.351849,47.609375 C163.389747,48.8164123 162.430593,49.6337869 161.474357,50.0615234 C160.518122,50.48926 159.324312,50.703125 157.892892,50.703125 C155.98042,50.703125 154.481558,50.2109424 153.39626,49.2265625 C152.310962,48.2421826 151.768321,46.841806 151.768321,45.0253906 C151.768321,41.1347462 154.883373,39.0957041 161.113571,38.9082031 L164.387048,38.8027344 L164.387048,37.6074219 C164.387048,36.0956956 164.061463,34.9794958 163.410285,34.2587891 C162.759106,33.5380823 161.717822,33.1777344 160.286402,33.1777344 C158.678987,33.1777344 156.860407,33.669917 154.830606,34.6542969 L153.93304,32.421875 C154.883409,31.9062474 155.924693,31.5019546 157.056923,31.2089844 C158.189153,30.9160142 159.324299,30.7695312 160.462395,30.7695312 C162.762054,30.7695312 164.466239,31.2792918 165.575003,32.2988281 C166.683767,33.3183645 167.238141,34.9531137 167.238141,37.203125 L167.238141,50.3515625 L165.073422,50.3515625 Z M158.47367,48.2949219 C160.292277,48.2949219 161.720743,47.79688 162.759109,46.8007812 C163.797475,45.8046825 164.316651,44.4101652 164.316651,42.6171875 L164.316651,40.8769531 L161.39516,41 C159.072036,41.0820317 157.397182,41.4423796 156.370549,42.0810547 C155.343915,42.7197298 154.830606,43.7128839 154.830606,45.0605469 C154.830606,46.1152396 155.150324,46.917966 155.78977,47.46875 C156.429216,48.019534 157.32384,48.2949219 158.47367,48.2949219 Z M182.056785,30.734375 C182.913291,30.734375 183.681788,30.8046868 184.362299,30.9453125 L183.957514,33.6523438 C183.159673,33.4765616 182.455707,33.3886719 181.845593,33.3886719 C180.285111,33.3886719 178.950507,34.021478 177.841743,35.2871094 C176.732979,36.5527407 176.178606,38.1288968 176.178606,40.015625 L176.178606,50.3515625 L173.257115,50.3515625 L173.257115,31.0859375 L175.668225,31.0859375 L176.002612,34.6542969 L176.143407,34.6542969 C176.859117,33.4003844 177.721476,32.4335971 178.73051,31.7539062 C179.739544,31.0742154 180.848291,30.734375 182.056785,30.734375 Z M184.907878,31.0859375 L188.040561,31.0859375 L192.264403,42.0722656 C193.191306,44.5800907 193.766212,46.3906194 193.989138,47.5039062 L194.129933,47.5039062 C194.282461,46.906247 194.602179,45.8837963 195.089097,44.4365234 C195.576014,42.9892506 197.168739,38.5390998 199.867317,31.0859375 L203,31.0859375 L194.710711,53.0234375 C193.889404,55.1914171 192.93025,56.7294876 191.833219,57.6376953 C190.736188,58.545903 189.389852,59 187.79417,59 C186.902466,59 186.022508,58.9003916 185.154269,58.7011719 L185.154269,56.3632812 C185.799582,56.503907 186.521147,56.5742188 187.318988,56.5742188 C189.325323,56.5742188 190.756722,55.44923 191.613227,53.1992188 L192.686787,50.4570312 L184.907878,31.0859375 Z" id="packary.io" fill="#FFFFFF"></path>
            <g id="Logo" transform="translate(16.000000, 16.000000)" stroke="#FFFFFF" stroke-linecap="round" stroke-linejoin="round">
                <g transform="translate(0.705882, 0.176471)">
                    <path d="M23.2941383,19.0445344 C20.9355554,19.0445344 13.7543537,16.1450144 1.75053307,10.3459743 L1.75053291,10.3459746 C1.36397179,10.1592271 1.20199084,9.69446862 1.38873834,9.3079075 C1.47162053,9.13634412 1.61462774,9.0011969 1.79059774,8.92813519 L22.7004427,0.246490335 C23.0806179,0.0886438306 23.5078765,0.0880171153 23.8885131,0.244747639 L44.9750806,8.92731292 C45.3720597,9.09077259 45.5613645,9.54509794 45.3979048,9.942077 C45.324663,10.1199526 45.188069,10.2643536 45.0145345,10.3473589 C32.8927375,16.1454759 25.6526054,19.0445344 23.2941383,19.0445344 Z" id="Line-3" stroke-width="0.777327935" fill="url(#linearGradient-3)"></path>
                    <path d="M-2.04542266e-14,12.0495735 L-2.22044605e-14,37.8303995 C-2.0734532e-14,38.4577937 0.377110426,39.0236996 0.956148883,39.265232 L21.1409548,47.6848542 C21.9333909,48.0154004 22.843748,47.6409648 23.1742943,46.8485287 C23.2533917,46.6589041 23.2941176,46.4554818 23.2941176,46.2500217 L23.2941176,20.4691956 C23.2941176,19.8418014 22.9170072,19.2758955 22.3379688,19.0343631 L2.15316286,10.614741 C1.36072676,10.2841947 0.450369666,10.6586304 0.119823385,11.4510665 C0.040725929,11.640691 -2.02312207e-14,11.8441133 -2.0206059e-14,12.0495735 Z" id="Path-2" stroke-width="0.777327935" fill="url(#linearGradient-4)"></path>
                    <path d="M25.3364526,47.7139492 L31.9330233,45.5346773 C32.5698719,45.3242852 33,44.7291936 33,44.0584917 L33,38.4335952 C33,37.811915 33.3703594,37.2500062 33.9416758,37.0048859 L45.6465595,31.9829683 C46.2178759,31.7378481 46.5882353,31.1759393 46.5882353,30.554259 L46.5882353,12.0495735 C46.5882353,11.1909607 45.8921922,10.4949176 45.0335794,10.4949176 C44.8281193,10.4949176 44.624697,10.5356435 44.4350724,10.614741 L24.2502665,19.0343631 C23.6712281,19.2758955 23.2941176,19.8418014 23.2941176,20.4691956 L23.2941176,46.2377636 C23.2941176,47.0963764 23.9901608,47.7924195 24.8487735,47.7924195 C25.0144763,47.7924195 25.1791136,47.7659285 25.3364526,47.7139492 Z" id="Path-3" stroke-width="0.777327935" fill="url(#linearGradient-5)"></path>
                    <polygon id="Path-4" stroke-width="0.777327935" fill="#FFFFFF" points="33 27.2064777 38.8235294 24.7773279 38.8235294 23.805668 33 26.2348178"></polygon>
                </g>
            </g>
        </g>
    </g>
</svg>