<?xml version="1.0" encoding="UTF-8"?>
<svg width="260px" height="80px" viewBox="0 0 260 80" version="1.1" xmlns="http://www.w3.org/2000/svg" xmlns:xlink="http://www.w3.org/1999/xlink">
    <!-- Generator: Sketch 48.2 (47327) - http://www.bohemiancoding.com/sketch -->
    <title>Logo Title</title>
    <desc>Created with Sketch.</desc>
    <defs>
        <linearGradient x1="0%" y1="0%" x2="100%" y2="100%" id="linearGradient-1">
            <stop stop-color="#FF6F6F" offset="0%"></stop>
            <stop stop-color="#FF6F93" offset="100%"></stop>
        </linearGradient>
        <linearGradient x1="50%" y1="0%" x2="50%" y2="100%" id="linearGradient-2">
            <stop stop-color="#FFFFFF" stop-opacity="0.5" offset="0%"></stop>
            <stop stop-color="#000000" stop-opacity="0.5" offset="100%"></stop>
        </linearGradient>
        <linearGradient x1="0%" y1="0%" x2="100%" y2="100%" id="linearGradient-3">
            <stop stop-color="#FF6F6F" offset="0%"></stop>
            <stop stop-color="#FF6FAC" offset="100%"></stop>
        </linearGradient>
        <linearGradient x1="0%" y1="0%" x2="88.0186494%" y2="50%" id="linearGradient-4">
            <stop stop-color="#FF6F6F" offset="0%"></stop>
            <stop stop-color="#FF6F93" offset="100%"></stop>
        </linearGradient>
        <linearGradient x1="0%" y1="23.1587554%" x2="88.9493856%" y2="57.0467934%" id="linearGradient-5">
            <stop stop-color="#FF6F6F" offset="0%"></stop>
            <stop stop-color="#FF6F93" offset="100%"></stop>
        </linearGradient>
    </defs>
    <g id="Symbols" stroke="none" stroke-width="1" fill="none" fill-rule="evenodd">
        <g id="Logo-Title">
            <path d="M84.0585938,50.3515625 C82.8046812,50.3515625 81.6591849,50.1201195 80.6220703,49.6572266 C79.5849558,49.1943336 78.7148473,48.4824267 78.0117188,47.5214844 L77.8007812,47.5214844 C77.941407,48.64649 78.0117188,49.7128856 78.0117188,50.7207031 L78.0117188,58.6484375 L75.09375,58.6484375 L75.09375,30.734375 L77.4667969,30.734375 L77.8710938,33.3710938 L78.0117188,33.3710938 C78.7617225,32.316401 79.6347606,31.5546898 80.6308594,31.0859375 C81.6269581,30.6171852 82.7695248,30.3828125 84.0585938,30.3828125 C86.613294,30.3828125 88.584954,31.2558506 89.9736328,33.0019531 C91.3623116,34.7480556 92.0566406,37.1972499 92.0566406,40.3496094 C92.0566406,43.5136877 91.350593,45.9716709 89.9384766,47.7236328 C88.5263601,49.4755947 86.5664188,50.3515625 84.0585938,50.3515625 Z M83.6367188,32.8613281 C81.6679589,32.8613281 80.244145,33.4062446 79.3652344,34.4960938 C78.4863237,35.5859429 78.0351564,37.3203006 78.0117188,39.6992188 L78.0117188,40.3496094 C78.0117188,43.0566542 78.4628861,44.9931582 79.3652344,46.1591797 C80.2675826,47.3252011 81.7148338,47.9082031 83.7070312,47.9082031 C85.3711021,47.9082031 86.6748,47.2343817 87.6181641,45.8867188 C88.5615282,44.5390558 89.0332031,42.6816525 89.0332031,40.3144531 C89.0332031,37.9120974 88.5615282,36.0693424 87.6181641,34.7861328 C86.6748,33.5029233 85.3476648,32.8613281 83.6367188,32.8613281 Z M109.001953,50 L108.421875,47.2578125 L108.28125,47.2578125 C107.320308,48.4648498 106.362309,49.2822244 105.407227,49.7099609 C104.452144,50.1376975 103.259773,50.3515625 101.830078,50.3515625 C99.9199123,50.3515625 98.422857,49.8593799 97.3388672,48.875 C96.2548774,47.8906201 95.7128906,46.4902435 95.7128906,44.6738281 C95.7128906,40.7831837 98.8241876,38.7441416 105.046875,38.5566406 L108.316406,38.4511719 L108.316406,37.2558594 C108.316406,35.7441331 107.991214,34.6279333 107.34082,33.9072266 C106.690426,33.1865198 105.650398,32.8261719 104.220703,32.8261719 C102.615226,32.8261719 100.798838,33.3183545 98.7714844,34.3027344 L97.875,32.0703125 C98.8242235,31.5546849 99.8642522,31.1503921 100.995117,30.8574219 C102.125982,30.5644517 103.25976,30.4179688 104.396484,30.4179688 C106.693371,30.4179688 108.395502,30.9277293 109.50293,31.9472656 C110.610357,32.966802 111.164062,34.6015512 111.164062,36.8515625 L111.164062,50 L109.001953,50 Z M102.410156,47.9433594 C104.226572,47.9433594 105.653315,47.4453175 106.69043,46.4492188 C107.727544,45.45312 108.246094,44.0586027 108.246094,42.265625 L108.246094,40.5253906 L105.328125,40.6484375 C103.007801,40.7304692 101.334966,41.0908171 100.30957,41.7294922 C99.2841746,42.3681673 98.7714844,43.3613214 98.7714844,44.7089844 C98.7714844,45.7636771 99.0908171,46.5664035 99.7294922,47.1171875 C100.368167,47.6679715 101.261713,47.9433594 102.410156,47.9433594 Z M124.875,50.3515625 C122.085924,50.3515625 119.926765,49.4931726 118.397461,47.7763672 C116.868156,46.0595617 116.103516,43.6308751 116.103516,40.4902344 C116.103516,37.267562 116.879875,34.7773525 118.432617,33.0195312 C119.985359,31.26171 122.197251,30.3828125 125.068359,30.3828125 C125.994145,30.3828125 126.919917,30.4824209 127.845703,30.6816406 C128.771489,30.8808604 129.498044,31.115233 130.025391,31.3847656 L129.128906,33.8632812 C128.484372,33.6054675 127.781254,33.3916024 127.019531,33.2216797 C126.257809,33.051757 125.583987,32.9667969 124.998047,32.9667969 C121.083965,32.9667969 119.126953,35.4628657 119.126953,40.4550781 C119.126953,42.8222775 119.604487,44.6386655 120.55957,45.9042969 C121.514653,47.1699282 122.929678,47.8027344 124.804688,47.8027344 C126.410164,47.8027344 128.056632,47.4570347 129.744141,46.765625 L129.744141,49.3496094 C128.455072,50.0175815 126.832041,50.3515625 124.875,50.3515625 Z M137.197266,40.1386719 C137.701174,39.4238246 138.468745,38.4863339 139.5,37.3261719 L145.722656,30.734375 L149.185547,30.734375 L141.380859,38.9433594 L149.730469,50 L146.197266,50 L139.394531,40.8945312 L137.197266,42.7929688 L137.197266,50 L134.314453,50 L134.314453,22.6484375 L137.197266,22.6484375 L137.197266,37.1503906 C137.197266,37.7949251 137.150391,38.7910089 137.056641,40.1386719 L137.197266,40.1386719 Z M165.058594,50 L164.478516,47.2578125 L164.337891,47.2578125 C163.376948,48.4648498 162.41895,49.2822244 161.463867,49.7099609 C160.508784,50.1376975 159.316413,50.3515625 157.886719,50.3515625 C155.976553,50.3515625 154.479498,49.8593799 153.395508,48.875 C152.311518,47.8906201 151.769531,46.4902435 151.769531,44.6738281 C151.769531,40.7831837 154.880828,38.7441416 161.103516,38.5566406 L164.373047,38.4511719 L164.373047,37.2558594 C164.373047,35.7441331 164.047855,34.6279333 163.397461,33.9072266 C162.747067,33.1865198 161.707038,32.8261719 160.277344,32.8261719 C158.671867,32.8261719 156.855479,33.3183545 154.828125,34.3027344 L153.931641,32.0703125 C154.880864,31.5546849 155.920893,31.1503921 157.051758,30.8574219 C158.182623,30.5644517 159.316401,30.4179688 160.453125,30.4179688 C162.750011,30.4179688 164.452143,30.9277293 165.55957,31.9472656 C166.666998,32.966802 167.220703,34.6015512 167.220703,36.8515625 L167.220703,50 L165.058594,50 Z M158.466797,47.9433594 C160.283212,47.9433594 161.709956,47.4453175 162.74707,46.4492188 C163.784185,45.45312 164.302734,44.0586027 164.302734,42.265625 L164.302734,40.5253906 L161.384766,40.6484375 C159.064442,40.7304692 157.391607,41.0908171 156.366211,41.7294922 C155.340815,42.3681673 154.828125,43.3613214 154.828125,44.7089844 C154.828125,45.7636771 155.147458,46.5664035 155.786133,47.1171875 C156.424808,47.6679715 157.318354,47.9433594 158.466797,47.9433594 Z M182.021484,30.3828125 C182.876957,30.3828125 183.644528,30.4531243 184.324219,30.59375 L183.919922,33.3007812 C183.123043,33.1249991 182.419925,33.0371094 181.810547,33.0371094 C180.251945,33.0371094 178.918951,33.6699155 177.811523,34.9355469 C176.704096,36.2011782 176.150391,37.7773343 176.150391,39.6640625 L176.150391,50 L173.232422,50 L173.232422,30.734375 L175.640625,30.734375 L175.974609,34.3027344 L176.115234,34.3027344 C176.830082,33.0488219 177.691401,32.0820346 178.699219,31.4023438 C179.707036,30.7226529 180.814447,30.3828125 182.021484,30.3828125 Z M184.869141,30.734375 L187.998047,30.734375 L192.216797,41.7207031 C193.142583,44.2285282 193.716796,46.0390569 193.939453,47.1523438 L194.080078,47.1523438 C194.232423,46.5546845 194.551755,45.5322338 195.038086,44.0849609 C195.524416,42.6376881 197.115221,38.1875373 199.810547,30.734375 L202.939453,30.734375 L194.660156,52.671875 C193.83984,54.8398546 192.881841,56.3779251 191.786133,57.2861328 C190.690424,58.1943405 189.345711,58.6484375 187.751953,58.6484375 C186.861324,58.6484375 185.982426,58.5488291 185.115234,58.3496094 L185.115234,56.0117188 C185.759769,56.1523445 186.480465,56.2226562 187.277344,56.2226562 C189.28126,56.2226562 190.710933,55.0976675 191.566406,52.8476562 L192.638672,50.1054688 L184.869141,30.734375 Z M205.646484,48.1367188 C205.646484,47.3515586 205.825194,46.756838 206.182617,46.3525391 C206.540041,45.9482402 207.052731,45.7460938 207.720703,45.7460938 C208.400394,45.7460938 208.930662,45.9482402 209.311523,46.3525391 C209.692385,46.756838 209.882812,47.3515586 209.882812,48.1367188 C209.882812,48.8984413 209.689455,49.4843729 209.302734,49.8945312 C208.916014,50.3046896 208.388675,50.5097656 207.720703,50.5097656 C207.123044,50.5097656 206.627932,50.3251972 206.235352,49.9560547 C205.842771,49.5869122 205.646484,48.980473 205.646484,48.1367188 Z M218.566406,50 L215.648438,50 L215.648438,30.734375 L218.566406,30.734375 L218.566406,50 Z M215.402344,25.5136719 C215.402344,24.8456998 215.566405,24.3564469 215.894531,24.0458984 C216.222658,23.73535 216.63281,23.5800781 217.125,23.5800781 C217.593752,23.5800781 217.998045,23.7382797 218.337891,24.0546875 C218.677736,24.3710953 218.847656,24.8574186 218.847656,25.5136719 C218.847656,26.1699252 218.677736,26.6591781 218.337891,26.9814453 C217.998045,27.3037125 217.593752,27.4648438 217.125,27.4648438 C216.63281,27.4648438 216.222658,27.3037125 215.894531,26.9814453 C215.566405,26.6591781 215.402344,26.1699252 215.402344,25.5136719 Z M241.382812,40.3496094 C241.382812,43.4902501 240.591805,45.942374 239.009766,47.7060547 C237.427726,49.4697354 235.242201,50.3515625 232.453125,50.3515625 C230.73046,50.3515625 229.201179,49.9472697 227.865234,49.1386719 C226.52929,48.3300741 225.498051,47.1699294 224.771484,45.6582031 C224.044918,44.1464768 223.681641,42.3769633 223.681641,40.3496094 C223.681641,37.2089687 224.466789,34.7627041 226.037109,33.0107422 C227.60743,31.2587803 229.787095,30.3828125 232.576172,30.3828125 C235.271498,30.3828125 237.413078,31.2792879 239.000977,33.0722656 C240.588875,34.8652433 241.382812,37.2910003 241.382812,40.3496094 Z M226.705078,40.3496094 C226.705078,42.8105592 227.197261,44.6855404 228.181641,45.9746094 C229.166021,47.2636783 230.613272,47.9082031 232.523438,47.9082031 C234.433603,47.9082031 235.883784,47.266608 236.874023,45.9833984 C237.864263,44.7001889 238.359375,42.822278 238.359375,40.3496094 C238.359375,37.9003784 237.864263,36.0400454 236.874023,34.7685547 C235.883784,33.497064 234.421885,32.8613281 232.488281,32.8613281 C230.578115,32.8613281 229.136724,33.488275 228.164062,34.7421875 C227.191401,35.9961 226.705078,37.865222 226.705078,40.3496094 Z" id="packary.io" fill="url(#linearGradient-1)"></path>
            <g id="Logo" transform="translate(16.000000, 16.000000)" stroke="#FFFFFF" stroke-linecap="round" stroke-linejoin="round">
                <g transform="translate(0.705882, 0.176471)">
                    <path d="M23.2941383,19.0445344 C20.9355554,19.0445344 13.7543537,16.1450144 1.75053307,10.3459743 L1.75053291,10.3459746 C1.36397179,10.1592271 1.20199084,9.69446862 1.38873834,9.3079075 C1.47162053,9.13634412 1.61462774,9.0011969 1.79059774,8.92813519 L22.7004427,0.246490335 C23.0806179,0.0886438306 23.5078765,0.0880171153 23.8885131,0.244747639 L44.9750806,8.92731292 C45.3720597,9.09077259 45.5613645,9.54509794 45.3979048,9.942077 C45.324663,10.1199526 45.188069,10.2643536 45.0145345,10.3473589 C32.8927375,16.1454759 25.6526054,19.0445344 23.2941383,19.0445344 Z" id="Line-3" stroke-width="0.777327935" fill="url(#linearGradient-4)"></path>
                    <path d="M-2.04542266e-14,12.0495735 L-2.22044605e-14,37.8303995 C-2.0734532e-14,38.4577937 0.377110426,39.0236996 0.956148883,39.265232 L21.1409548,47.6848542 C21.9333909,48.0154004 22.843748,47.6409648 23.1742943,46.8485287 C23.2533917,46.6589041 23.2941176,46.4554818 23.2941176,46.2500217 L23.2941176,20.4691956 C23.2941176,19.8418014 22.9170072,19.2758955 22.3379688,19.0343631 L2.15316286,10.614741 C1.36072676,10.2841947 0.450369666,10.6586304 0.119823385,11.4510665 C0.040725929,11.640691 -2.02312207e-14,11.8441133 -2.0206059e-14,12.0495735 Z" id="Path-2" stroke-width="0.777327935" fill="url(#linearGradient-1)"></path>
                    <path d="M25.3364526,47.7139492 L31.9330233,45.5346773 C32.5698719,45.3242852 33,44.7291936 33,44.0584917 L33,38.4335952 C33,37.811915 33.3703594,37.2500062 33.9416758,37.0048859 L45.6465595,31.9829683 C46.2178759,31.7378481 46.5882353,31.1759393 46.5882353,30.554259 L46.5882353,12.0495735 C46.5882353,11.1909607 45.8921922,10.4949176 45.0335794,10.4949176 C44.8281193,10.4949176 44.624697,10.5356435 44.4350724,10.614741 L24.2502665,19.0343631 C23.6712281,19.2758955 23.2941176,19.8418014 23.2941176,20.4691956 L23.2941176,46.2377636 C23.2941176,47.0963764 23.9901608,47.7924195 24.8487735,47.7924195 C25.0144763,47.7924195 25.1791136,47.7659285 25.3364526,47.7139492 Z" id="Path-3" stroke-width="0.777327935" fill="url(#linearGradient-5)"></path>
                    <polygon id="Path-4" stroke-width="0.777327935" fill="#FFFFFF" points="33 27.2064777 38.8235294 24.7773279 38.8235294 23.805668 33 26.2348178"></polygon>
                </g>
            </g>
        </g>
    </g>
</svg>