<?xml version="1.0" encoding="UTF-8"?>
<svg width="400px" height="400px" viewBox="0 0 400 400" version="1.1" xmlns="http://www.w3.org/2000/svg" xmlns:xlink="http://www.w3.org/1999/xlink">
    <!-- Generator: Sketch 48.2 (47327) - http://www.bohemiancoding.com/sketch -->
    <title>mail-white</title>
    <desc>Created with Sketch.</desc>
    <defs></defs>
    <g id="Symbols" stroke="none" stroke-width="1" fill="none" fill-rule="evenodd">
        <g id="mail-white" fill="#FFFFFF">
            <path d="M318.443493,108.938947 C314.071918,104.571974 308.816781,102.389342 302.679795,102.389342 L97.3219178,102.389342 C91.1832192,102.389342 85.9280822,104.571974 81.5565068,108.938947 C77.1849315,113.305921 75,118.555526 75,124.687763 L75,276.315658 C75,282.447895 77.1849315,287.694079 81.5565068,292.061053 C85.9280822,296.431447 91.1832192,298.612368 97.3219178,298.612368 L302.679795,298.612368 C308.816781,298.612368 314.071918,296.431447 318.443493,292.061053 C322.816781,287.694079 325,282.446184 325,276.315658 L325,124.687763 C325,118.555526 322.816781,113.305921 318.443493,108.938947 L318.443493,108.938947 Z M307.140411,276.312237 C307.140411,277.519868 306.69863,278.565 305.815068,279.447632 C304.931507,280.330263 303.885274,280.769868 302.678082,280.769868 L97.3202055,280.769868 C96.1113014,280.769868 95.0650685,280.330263 94.1815068,279.447632 C93.2979452,278.565 92.8561644,277.519868 92.8561644,276.312237 L92.8561644,169.282895 C95.8321918,172.626974 99.0410959,175.693947 102.482877,178.480395 C127.409247,197.619474 147.219178,213.320395 161.914384,225.584868 C166.657534,229.580658 170.517123,232.692105 173.493151,234.922632 C176.469178,237.153158 180.491438,239.404211 185.559932,241.680921 C190.628425,243.957632 195.395548,245.093421 199.859589,245.093421 L200,245.093421 L200.138699,245.093421 C204.601027,245.093421 209.371575,243.957632 214.438356,241.680921 C219.508562,239.404211 223.532534,237.153158 226.508562,234.922632 C229.482877,232.692105 233.344178,229.580658 238.087329,225.584868 C252.782534,213.320395 272.590753,197.619474 297.517123,178.480395 C300.958904,175.693947 304.169521,172.626974 307.142123,169.282895 L307.142123,276.312237 L307.140411,276.312237 Z M307.140411,128.310658 L307.140411,129.843289 C307.140411,135.323816 304.979452,141.433816 300.655822,148.168158 C296.332192,154.904211 291.655822,160.270132 286.635274,164.264211 C268.683219,178.388026 250.037671,193.112237 230.690068,208.441974 C230.131849,208.905526 228.503425,210.277368 225.806507,212.552368 C223.111301,214.829079 220.97089,216.573816 219.388699,217.779737 C217.806507,218.989079 215.739726,220.451579 213.181507,222.168947 C210.623288,223.886316 208.275685,225.165789 206.136986,226.000526 C203.998288,226.835263 201.998288,227.252632 200.138699,227.252632 L200,227.252632 L199.859589,227.252632 C198,227.252632 196.001712,226.835263 193.861301,226.000526 C191.722603,225.165789 189.373288,223.886316 186.816781,222.168947 C184.260274,220.451579 182.190068,218.989079 180.609589,217.779737 C179.02911,216.573816 176.888699,214.829079 174.191781,212.552368 C171.494863,210.277368 169.866438,208.905526 169.308219,208.441974 C149.964041,193.112237 131.316781,178.388026 113.366438,164.264211 C99.6934932,153.487895 92.8578767,140.294605 92.8578767,124.686053 C92.8578767,123.478421 93.2996575,122.433289 94.1832192,121.550658 C95.0667808,120.668026 96.1130137,120.226711 97.3219178,120.226711 L302.679795,120.226711 C303.422945,120.644079 304.07363,120.760395 304.633562,120.575658 C305.191781,120.3875 305.609589,120.736447 305.886986,121.619079 C306.166096,122.501711 306.421233,122.919079 306.65411,122.872895 C306.886986,122.826711 307.027397,123.406579 307.07363,124.615921 C307.116438,125.823553 307.140411,126.430789 307.140411,126.430789 L307.140411,128.310658 L307.140411,128.310658 Z" id="Shape"></path>
        </g>
    </g>
</svg>