<?xml version="1.0" encoding="UTF-8"?>
<svg width="25px" height="22px" viewBox="0 0 25 22" version="1.1" xmlns="http://www.w3.org/2000/svg" xmlns:xlink="http://www.w3.org/1999/xlink">
    <!-- Generator: Sketch 48.2 (47327) - http://www.bohemiancoding.com/sketch -->
    <title>ic_male group</title>
    <desc>Created with Sketch.</desc>
    <defs>
        <linearGradient x1="0%" y1="0%" x2="100%" y2="100%" id="linearGradient-1">
            <stop stop-color="#FF6F6F" offset="0%"></stop>
            <stop stop-color="#FF6FAC" offset="100%"></stop>
        </linearGradient>
        <path d="M24.4268344,20.5388813 C24.4268344,20.5388813 24.1008344,20.811005 20.1328344,20.9360618 C20.2328344,20.6219191 20.2938344,20.2907685 20.3028344,19.9536153 C22.4308344,19.8815825 23.3768344,19.7695316 23.7678344,19.7025011 C24.2548344,18.7240564 23.8468344,17.2363802 23.2488344,16.6761255 C22.9658344,16.5150523 22.6318344,16.0468395 19.2878344,15.2444748 L17.5378344,14.8252842 L18.8198344,13.5987267 C20.1618344,12.3151432 21,10.031105 21,7.78208276 C21,4 18.7578344,1.97844475 15.4968344,1.97844475 C14.9308344,1.97844475 14.4458344,2.04747613 13.9958344,2.15052296 C13.4958344,1.97644384 12.9178344,1.86739427 12.2598344,1.82737608 C13.0618344,1.3161437 14.0948344,1 15.4968344,1 C20.0338344,1 22,4.03638017 22,7.78208276 C22,10.2191905 21.1048344,12.7913597 19.5318344,14.2950432 C21.1508344,14.6832196 23.4288344,15.5065939 23.9038344,15.9267849 C24.9498344,16.8492042 25.4728344,19.1552524 24.4268344,20.5388813 Z M16,9.78299227 C16,12.2201 15.1048344,14.7922692 13.5318344,16.2959527 C15.1508344,16.6841291 17.4288344,17.5075034 17.9038344,17.9276944 C18.9488344,18.8501137 19.4718344,21.1571623 18.4258344,22.5397908 C18.4258344,22.5397908 17.9038344,23 9.53883438,23 C1.17383438,23 0.572834381,22.5397908 0.572834381,22.5397908 C-0.480165619,21.1561619 0.0498343807,18.8501137 1.10283438,17.9276944 C1.59383438,17.4974989 3.82183438,16.6971351 5.47383438,16.3079582 C3.89383438,14.8052751 3,12.2271032 3,9.78299227 C3,6.03728968 4.95883438,3.00190996 9.49683438,3.00190996 C14.0338344,3.0009095 16,6.03728968 16,9.78299227 Z M9.49783438,3.97935425 C6.23583438,3.97935425 4,5.60609368 4,9.78299227 C4,12.0400182 4.83783438,14.3260573 6.18583438,15.6096407 L7.48183438,16.842201 L5.71483438,17.2583902 C2.36783438,18.0467485 2.03783438,18.5139609 1.75883438,18.6760346 C1.15583438,19.2342883 0.740834381,20.7199636 1.22883438,21.6984084 C1.84983438,21.805457 3.81183438,22.0205548 9.53983438,22.0205548 C15.2238344,22.0205548 17.1598344,21.8074579 17.7688344,21.7034106 C18.2558344,20.7239654 17.8478344,19.2382901 17.2498344,18.677035 C16.9668344,18.5159618 16.6328344,18.047749 13.2888344,17.2463847 L11.5388344,16.8261937 L12.8208344,15.5996362 C14.1628344,14.3160528 15,12.0320146 15,9.78299227 C14.999,5.60609368 12.7578344,3.97935425 9.49783438,3.97935425 Z" id="path-2"></path>
    </defs>
    <g id="Team" stroke="none" stroke-width="1" fill="none" fill-rule="evenodd" transform="translate(0.000000, -1.000000)">
        <mask id="mask-3" fill="white">
            <use xlink:href="#path-2"></use>
        </mask>
        <use id="ic_male-group" fill="url(#linearGradient-1)" fill-rule="nonzero" xlink:href="#path-2"></use>
    </g>
</svg>